%TF.GenerationSoftware,KiCad,Pcbnew,(6.0.7)*%
%TF.CreationDate,2022-11-16T17:50:00-06:00*%
%TF.ProjectId,ECE445PCBDesign (4),45434534-3435-4504-9342-44657369676e,rev?*%
%TF.SameCoordinates,Original*%
%TF.FileFunction,Soldermask,Top*%
%TF.FilePolarity,Negative*%
%FSLAX46Y46*%
G04 Gerber Fmt 4.6, Leading zero omitted, Abs format (unit mm)*
G04 Created by KiCad (PCBNEW (6.0.7)) date 2022-11-16 17:50:00*
%MOMM*%
%LPD*%
G01*
G04 APERTURE LIST*
G04 Aperture macros list*
%AMRoundRect*
0 Rectangle with rounded corners*
0 $1 Rounding radius*
0 $2 $3 $4 $5 $6 $7 $8 $9 X,Y pos of 4 corners*
0 Add a 4 corners polygon primitive as box body*
4,1,4,$2,$3,$4,$5,$6,$7,$8,$9,$2,$3,0*
0 Add four circle primitives for the rounded corners*
1,1,$1+$1,$2,$3*
1,1,$1+$1,$4,$5*
1,1,$1+$1,$6,$7*
1,1,$1+$1,$8,$9*
0 Add four rect primitives between the rounded corners*
20,1,$1+$1,$2,$3,$4,$5,0*
20,1,$1+$1,$4,$5,$6,$7,0*
20,1,$1+$1,$6,$7,$8,$9,0*
20,1,$1+$1,$8,$9,$2,$3,0*%
G04 Aperture macros list end*
%ADD10RoundRect,0.237500X-0.287500X-0.237500X0.287500X-0.237500X0.287500X0.237500X-0.287500X0.237500X0*%
%ADD11C,3.200000*%
%ADD12RoundRect,0.250000X-0.337500X-0.475000X0.337500X-0.475000X0.337500X0.475000X-0.337500X0.475000X0*%
%ADD13RoundRect,0.250000X-0.450000X0.350000X-0.450000X-0.350000X0.450000X-0.350000X0.450000X0.350000X0*%
%ADD14RoundRect,0.075000X-0.075000X0.662500X-0.075000X-0.662500X0.075000X-0.662500X0.075000X0.662500X0*%
%ADD15RoundRect,0.075000X-0.662500X0.075000X-0.662500X-0.075000X0.662500X-0.075000X0.662500X0.075000X0*%
%ADD16RoundRect,0.250000X-0.620000X-0.845000X0.620000X-0.845000X0.620000X0.845000X-0.620000X0.845000X0*%
%ADD17O,1.740000X2.190000*%
%ADD18R,1.680000X1.700000*%
%ADD19RoundRect,0.250000X0.450000X-0.350000X0.450000X0.350000X-0.450000X0.350000X-0.450000X-0.350000X0*%
%ADD20RoundRect,0.250000X-0.350000X-0.450000X0.350000X-0.450000X0.350000X0.450000X-0.350000X0.450000X0*%
%ADD21R,0.876300X0.355600*%
%ADD22RoundRect,0.250000X-0.475000X0.337500X-0.475000X-0.337500X0.475000X-0.337500X0.475000X0.337500X0*%
%ADD23C,1.000000*%
%ADD24R,1.500000X0.500000*%
%ADD25R,1.800000X3.000000*%
%ADD26RoundRect,0.237500X0.287500X0.237500X-0.287500X0.237500X-0.287500X-0.237500X0.287500X-0.237500X0*%
%ADD27RoundRect,0.250000X0.475000X-0.337500X0.475000X0.337500X-0.475000X0.337500X-0.475000X-0.337500X0*%
%ADD28RoundRect,0.250002X1.699998X-1.699998X1.699998X1.699998X-1.699998X1.699998X-1.699998X-1.699998X0*%
%ADD29C,3.900000*%
%ADD30R,2.400000X3.400000*%
%ADD31R,1.750000X0.450000*%
%ADD32RoundRect,0.250000X0.845000X-0.620000X0.845000X0.620000X-0.845000X0.620000X-0.845000X-0.620000X0*%
%ADD33O,2.190000X1.740000*%
%ADD34R,2.400000X3.100000*%
%ADD35RoundRect,0.150000X-0.737500X-0.150000X0.737500X-0.150000X0.737500X0.150000X-0.737500X0.150000X0*%
%ADD36R,1.550000X1.300000*%
%ADD37RoundRect,0.250000X0.620000X0.845000X-0.620000X0.845000X-0.620000X-0.845000X0.620000X-0.845000X0*%
%ADD38R,1.192000X1.192000*%
%ADD39C,1.192000*%
%ADD40R,1.700000X1.680000*%
G04 APERTURE END LIST*
D10*
%TO.C,L1*%
X168543000Y-106934000D03*
X170293000Y-106934000D03*
%TD*%
D11*
%TO.C,H2*%
X203200000Y-75438000D03*
%TD*%
D12*
%TO.C,C5*%
X170666500Y-104394000D03*
X172741500Y-104394000D03*
%TD*%
D13*
%TO.C,R2*%
X143256000Y-133366000D03*
X143256000Y-135366000D03*
%TD*%
D14*
%TO.C,U2*%
X159416000Y-107399500D03*
X158916000Y-107399500D03*
X158416000Y-107399500D03*
X157916000Y-107399500D03*
X157416000Y-107399500D03*
X156916000Y-107399500D03*
X156416000Y-107399500D03*
X155916000Y-107399500D03*
X155416000Y-107399500D03*
X154916000Y-107399500D03*
X154416000Y-107399500D03*
X153916000Y-107399500D03*
X153416000Y-107399500D03*
X152916000Y-107399500D03*
X152416000Y-107399500D03*
X151916000Y-107399500D03*
X151416000Y-107399500D03*
X150916000Y-107399500D03*
X150416000Y-107399500D03*
X149916000Y-107399500D03*
X149416000Y-107399500D03*
X148916000Y-107399500D03*
X148416000Y-107399500D03*
X147916000Y-107399500D03*
X147416000Y-107399500D03*
D15*
X145753500Y-109062000D03*
X145753500Y-109562000D03*
X145753500Y-110062000D03*
X145753500Y-110562000D03*
X145753500Y-111062000D03*
X145753500Y-111562000D03*
X145753500Y-112062000D03*
X145753500Y-112562000D03*
X145753500Y-113062000D03*
X145753500Y-113562000D03*
X145753500Y-114062000D03*
X145753500Y-114562000D03*
X145753500Y-115062000D03*
X145753500Y-115562000D03*
X145753500Y-116062000D03*
X145753500Y-116562000D03*
X145753500Y-117062000D03*
X145753500Y-117562000D03*
X145753500Y-118062000D03*
X145753500Y-118562000D03*
X145753500Y-119062000D03*
X145753500Y-119562000D03*
X145753500Y-120062000D03*
X145753500Y-120562000D03*
X145753500Y-121062000D03*
D14*
X147416000Y-122724500D03*
X147916000Y-122724500D03*
X148416000Y-122724500D03*
X148916000Y-122724500D03*
X149416000Y-122724500D03*
X149916000Y-122724500D03*
X150416000Y-122724500D03*
X150916000Y-122724500D03*
X151416000Y-122724500D03*
X151916000Y-122724500D03*
X152416000Y-122724500D03*
X152916000Y-122724500D03*
X153416000Y-122724500D03*
X153916000Y-122724500D03*
X154416000Y-122724500D03*
X154916000Y-122724500D03*
X155416000Y-122724500D03*
X155916000Y-122724500D03*
X156416000Y-122724500D03*
X156916000Y-122724500D03*
X157416000Y-122724500D03*
X157916000Y-122724500D03*
X158416000Y-122724500D03*
X158916000Y-122724500D03*
X159416000Y-122724500D03*
D15*
X161078500Y-121062000D03*
X161078500Y-120562000D03*
X161078500Y-120062000D03*
X161078500Y-119562000D03*
X161078500Y-119062000D03*
X161078500Y-118562000D03*
X161078500Y-118062000D03*
X161078500Y-117562000D03*
X161078500Y-117062000D03*
X161078500Y-116562000D03*
X161078500Y-116062000D03*
X161078500Y-115562000D03*
X161078500Y-115062000D03*
X161078500Y-114562000D03*
X161078500Y-114062000D03*
X161078500Y-113562000D03*
X161078500Y-113062000D03*
X161078500Y-112562000D03*
X161078500Y-112062000D03*
X161078500Y-111562000D03*
X161078500Y-111062000D03*
X161078500Y-110562000D03*
X161078500Y-110062000D03*
X161078500Y-109562000D03*
X161078500Y-109062000D03*
%TD*%
D16*
%TO.C,M1*%
X192024000Y-107716000D03*
D17*
X194564000Y-107716000D03*
X197104000Y-107716000D03*
%TD*%
D16*
%TO.C,Servo2TestConnection1*%
X181610000Y-117836000D03*
D17*
X184150000Y-117836000D03*
%TD*%
D13*
%TO.C,R4*%
X132334000Y-94758000D03*
X132334000Y-96758000D03*
%TD*%
D18*
%TO.C,D6*%
X194056000Y-130708500D03*
X194056000Y-127128500D03*
%TD*%
D19*
%TO.C,Shunt2*%
X177292000Y-120380000D03*
X177292000Y-118380000D03*
%TD*%
D20*
%TO.C,R6*%
X145050000Y-93980000D03*
X147050000Y-93980000D03*
%TD*%
D21*
%TO.C,U3*%
X173069250Y-126125999D03*
X173069250Y-125476000D03*
X173069250Y-124826001D03*
X170846750Y-124826001D03*
X170846750Y-125476000D03*
X170846750Y-126125999D03*
%TD*%
D20*
%TO.C,R9*%
X129048000Y-137668000D03*
X131048000Y-137668000D03*
%TD*%
D22*
%TO.C,C9*%
X122174000Y-109982000D03*
X122174000Y-112057000D03*
%TD*%
D23*
%TO.C,J1*%
X118751500Y-134064000D03*
X118751500Y-128064000D03*
D24*
X122201500Y-132664000D03*
X122201500Y-131864000D03*
X122201500Y-131064000D03*
X122201500Y-130264000D03*
X122201500Y-129464000D03*
D25*
X121051500Y-135814000D03*
X121051500Y-126314000D03*
%TD*%
D22*
%TO.C,C4*%
X141478000Y-113008500D03*
X141478000Y-115083500D03*
%TD*%
D26*
%TO.C,D2*%
X159117000Y-138684000D03*
X157367000Y-138684000D03*
%TD*%
D18*
%TO.C,D5*%
X194056000Y-124104500D03*
X194056000Y-120524500D03*
%TD*%
D11*
%TO.C,H1*%
X119380000Y-141732000D03*
%TD*%
D27*
%TO.C,C2*%
X159512000Y-133625500D03*
X159512000Y-131550500D03*
%TD*%
%TO.C,C1*%
X143256000Y-130556000D03*
X143256000Y-128481000D03*
%TD*%
D22*
%TO.C,C3*%
X141478000Y-117818500D03*
X141478000Y-119893500D03*
%TD*%
D28*
%TO.C,LiPO_IN1*%
X123952000Y-91948000D03*
D29*
X123952000Y-84148000D03*
%TD*%
D16*
%TO.C,M2*%
X182372000Y-107716000D03*
D17*
X184912000Y-107716000D03*
X187452000Y-107716000D03*
%TD*%
D30*
%TO.C,L2*%
X159984000Y-90932000D03*
X168184000Y-90932000D03*
%TD*%
D31*
%TO.C,U1*%
X153968000Y-135543000D03*
X153968000Y-134893000D03*
X153968000Y-134243000D03*
X153968000Y-133593000D03*
X153968000Y-132943000D03*
X153968000Y-132293000D03*
X153968000Y-131643000D03*
X153968000Y-130993000D03*
X153968000Y-130343000D03*
X153968000Y-129693000D03*
X153968000Y-129043000D03*
X153968000Y-128393000D03*
X153968000Y-127743000D03*
X153968000Y-127093000D03*
X146768000Y-127093000D03*
X146768000Y-127743000D03*
X146768000Y-128393000D03*
X146768000Y-129043000D03*
X146768000Y-129693000D03*
X146768000Y-130343000D03*
X146768000Y-130993000D03*
X146768000Y-131643000D03*
X146768000Y-132293000D03*
X146768000Y-132943000D03*
X146768000Y-133593000D03*
X146768000Y-134243000D03*
X146768000Y-134893000D03*
X146768000Y-135543000D03*
%TD*%
D32*
%TO.C,ODriveConnector2*%
X180868000Y-99568000D03*
D33*
X180868000Y-97028000D03*
X180868000Y-94488000D03*
X180868000Y-91948000D03*
%TD*%
D34*
%TO.C,U5*%
X139192000Y-91948000D03*
D35*
X136629500Y-90043000D03*
X136629500Y-91313000D03*
X136629500Y-92583000D03*
X136629500Y-93853000D03*
X141754500Y-93853000D03*
X141754500Y-92583000D03*
X141754500Y-91313000D03*
X141754500Y-90043000D03*
%TD*%
D27*
%TO.C,C10*%
X150114000Y-92964000D03*
X150114000Y-90889000D03*
%TD*%
D12*
%TO.C,C14*%
X135323000Y-82550000D03*
X137398000Y-82550000D03*
%TD*%
D19*
%TO.C,Shunt1*%
X177038000Y-126476000D03*
X177038000Y-124476000D03*
%TD*%
D22*
%TO.C,C12*%
X132334000Y-86592500D03*
X132334000Y-88667500D03*
%TD*%
D36*
%TO.C,SW1*%
X141897000Y-104938000D03*
X133947000Y-104938000D03*
X133947000Y-109438000D03*
X141897000Y-109438000D03*
%TD*%
D16*
%TO.C,Servo1TestConnection1*%
X181610000Y-125730000D03*
D17*
X184150000Y-125730000D03*
%TD*%
D32*
%TO.C,ODriveConnector1*%
X192806000Y-99568000D03*
D33*
X192806000Y-97028000D03*
X192806000Y-94488000D03*
X192806000Y-91948000D03*
%TD*%
D18*
%TO.C,D7*%
X194056000Y-136804500D03*
X194056000Y-133224500D03*
%TD*%
D16*
%TO.C,ProgrammingPins1*%
X174752000Y-135910000D03*
D17*
X177292000Y-135910000D03*
X179832000Y-135910000D03*
X182372000Y-135910000D03*
%TD*%
D22*
%TO.C,C6*%
X122174000Y-96012000D03*
X122174000Y-98087000D03*
%TD*%
D20*
%TO.C,R1*%
X173498000Y-107696000D03*
X175498000Y-107696000D03*
%TD*%
D11*
%TO.C,H4*%
X119380000Y-75438000D03*
%TD*%
D13*
%TO.C,R5*%
X132334000Y-99092000D03*
X132334000Y-101092000D03*
%TD*%
D18*
%TO.C,D4*%
X194056000Y-118008500D03*
X194056000Y-114428500D03*
%TD*%
D12*
%TO.C,C13*%
X140109000Y-82634000D03*
X142184000Y-82634000D03*
%TD*%
%TO.C,C15*%
X130513000Y-82550000D03*
X132588000Y-82550000D03*
%TD*%
D11*
%TO.C,H3*%
X203200000Y-141732000D03*
%TD*%
D10*
%TO.C,D1*%
X143143000Y-137922000D03*
X144893000Y-137922000D03*
%TD*%
D22*
%TO.C,C8*%
X122174000Y-105388500D03*
X122174000Y-107463500D03*
%TD*%
%TO.C,C7*%
X122174000Y-100838000D03*
X122174000Y-102913000D03*
%TD*%
D37*
%TO.C,JTAGExposure1*%
X170688000Y-135870000D03*
D17*
X168148000Y-135870000D03*
X165608000Y-135870000D03*
X163068000Y-135870000D03*
%TD*%
D13*
%TO.C,R8*%
X155956000Y-92726000D03*
X155956000Y-94726000D03*
%TD*%
D22*
%TO.C,C11*%
X145288000Y-88370500D03*
X145288000Y-90445500D03*
%TD*%
D20*
%TO.C,R10*%
X133128000Y-137668000D03*
X135128000Y-137668000D03*
%TD*%
D13*
%TO.C,R11*%
X136652000Y-96536000D03*
X136652000Y-98536000D03*
%TD*%
D20*
%TO.C,R3*%
X157242000Y-135890000D03*
X159242000Y-135890000D03*
%TD*%
D38*
%TO.C,Y1*%
X135382000Y-117602000D03*
D39*
X135382000Y-122482000D03*
%TD*%
D21*
%TO.C,U4*%
X173069250Y-120029999D03*
X173069250Y-119380000D03*
X173069250Y-118730001D03*
X170846750Y-118730001D03*
X170846750Y-119380000D03*
X170846750Y-120029999D03*
%TD*%
D13*
%TO.C,R7*%
X155956000Y-86376000D03*
X155956000Y-88376000D03*
%TD*%
D40*
%TO.C,D3*%
X145276000Y-82804000D03*
X148856000Y-82804000D03*
%TD*%
M02*
