%TF.GenerationSoftware,KiCad,Pcbnew,(6.0.7)*%
%TF.CreationDate,2022-11-16T17:50:00-06:00*%
%TF.ProjectId,ECE445PCBDesign (4),45434534-3435-4504-9342-44657369676e,rev?*%
%TF.SameCoordinates,Original*%
%TF.FileFunction,Legend,Top*%
%TF.FilePolarity,Positive*%
%FSLAX46Y46*%
G04 Gerber Fmt 4.6, Leading zero omitted, Abs format (unit mm)*
G04 Created by KiCad (PCBNEW (6.0.7)) date 2022-11-16 17:50:00*
%MOMM*%
%LPD*%
G01*
G04 APERTURE LIST*
%ADD10C,0.150000*%
%ADD11C,0.254000*%
%ADD12C,0.120000*%
%ADD13C,0.250000*%
%ADD14C,0.100000*%
%ADD15C,0.127000*%
%ADD16C,0.200000*%
G04 APERTURE END LIST*
D10*
%TO.C,L1*%
X169080066Y-109672380D02*
X168603875Y-109672380D01*
X168603875Y-108672380D01*
X169937209Y-109672380D02*
X169365780Y-109672380D01*
X169651494Y-109672380D02*
X169651494Y-108672380D01*
X169556256Y-108815238D01*
X169461018Y-108910476D01*
X169365780Y-108958095D01*
%TO.C,U2*%
X162218380Y-115823904D02*
X163027904Y-115823904D01*
X163123142Y-115776285D01*
X163170761Y-115728666D01*
X163218380Y-115633428D01*
X163218380Y-115442952D01*
X163170761Y-115347714D01*
X163123142Y-115300095D01*
X163027904Y-115252476D01*
X162218380Y-115252476D01*
X162313619Y-114823904D02*
X162266000Y-114776285D01*
X162218380Y-114681047D01*
X162218380Y-114442952D01*
X162266000Y-114347714D01*
X162313619Y-114300095D01*
X162408857Y-114252476D01*
X162504095Y-114252476D01*
X162646952Y-114300095D01*
X163218380Y-114871523D01*
X163218380Y-114252476D01*
%TO.C,D6*%
X192313380Y-130832904D02*
X191313380Y-130832904D01*
X191313380Y-130594809D01*
X191361000Y-130451952D01*
X191456238Y-130356714D01*
X191551476Y-130309095D01*
X191741952Y-130261476D01*
X191884809Y-130261476D01*
X192075285Y-130309095D01*
X192170523Y-130356714D01*
X192265761Y-130451952D01*
X192313380Y-130594809D01*
X192313380Y-130832904D01*
X191313380Y-129404333D02*
X191313380Y-129594809D01*
X191361000Y-129690047D01*
X191408619Y-129737666D01*
X191551476Y-129832904D01*
X191741952Y-129880523D01*
X192122904Y-129880523D01*
X192218142Y-129832904D01*
X192265761Y-129785285D01*
X192313380Y-129690047D01*
X192313380Y-129499571D01*
X192265761Y-129404333D01*
X192218142Y-129356714D01*
X192122904Y-129309095D01*
X191884809Y-129309095D01*
X191789571Y-129356714D01*
X191741952Y-129404333D01*
X191694333Y-129499571D01*
X191694333Y-129690047D01*
X191741952Y-129785285D01*
X191789571Y-129832904D01*
X191884809Y-129880523D01*
X194630523Y-131428261D02*
X193360523Y-131428261D01*
X193360523Y-131125880D01*
X193421000Y-130944452D01*
X193541952Y-130823500D01*
X193662904Y-130763023D01*
X193904809Y-130702547D01*
X194086238Y-130702547D01*
X194328142Y-130763023D01*
X194449095Y-130823500D01*
X194570047Y-130944452D01*
X194630523Y-131125880D01*
X194630523Y-131428261D01*
X194630523Y-130158261D02*
X193360523Y-130158261D01*
X193360523Y-129311595D02*
X193360523Y-129069690D01*
X193421000Y-128948738D01*
X193541952Y-128827785D01*
X193783857Y-128767309D01*
X194207190Y-128767309D01*
X194449095Y-128827785D01*
X194570047Y-128948738D01*
X194630523Y-129069690D01*
X194630523Y-129311595D01*
X194570047Y-129432547D01*
X194449095Y-129553500D01*
X194207190Y-129613976D01*
X193783857Y-129613976D01*
X193541952Y-129553500D01*
X193421000Y-129432547D01*
X193360523Y-129311595D01*
X194630523Y-128223023D02*
X193360523Y-128223023D01*
X193360523Y-127920642D01*
X193421000Y-127739214D01*
X193541952Y-127618261D01*
X193662904Y-127557785D01*
X193904809Y-127497309D01*
X194086238Y-127497309D01*
X194328142Y-127557785D01*
X194449095Y-127618261D01*
X194570047Y-127739214D01*
X194630523Y-127920642D01*
X194630523Y-128223023D01*
X193965285Y-126953023D02*
X193965285Y-126529690D01*
X194630523Y-126348261D02*
X194630523Y-126953023D01*
X193360523Y-126953023D01*
X193360523Y-126348261D01*
%TO.C,U3*%
X173323250Y-127076980D02*
X173323250Y-127315076D01*
X173085154Y-127219838D02*
X173323250Y-127315076D01*
X173561345Y-127219838D01*
X173180392Y-127505552D02*
X173323250Y-127315076D01*
X173466107Y-127505552D01*
X173323250Y-127076980D02*
X173323250Y-127315076D01*
X173085154Y-127219838D02*
X173323250Y-127315076D01*
X173561345Y-127219838D01*
X173180392Y-127505552D02*
X173323250Y-127315076D01*
X173466107Y-127505552D01*
%TO.C,R9*%
X129881333Y-136470380D02*
X129548000Y-135994190D01*
X129309904Y-136470380D02*
X129309904Y-135470380D01*
X129690857Y-135470380D01*
X129786095Y-135518000D01*
X129833714Y-135565619D01*
X129881333Y-135660857D01*
X129881333Y-135803714D01*
X129833714Y-135898952D01*
X129786095Y-135946571D01*
X129690857Y-135994190D01*
X129309904Y-135994190D01*
X130357523Y-136470380D02*
X130548000Y-136470380D01*
X130643238Y-136422761D01*
X130690857Y-136375142D01*
X130786095Y-136232285D01*
X130833714Y-136041809D01*
X130833714Y-135660857D01*
X130786095Y-135565619D01*
X130738476Y-135518000D01*
X130643238Y-135470380D01*
X130452761Y-135470380D01*
X130357523Y-135518000D01*
X130309904Y-135565619D01*
X130262285Y-135660857D01*
X130262285Y-135898952D01*
X130309904Y-135994190D01*
X130357523Y-136041809D01*
X130452761Y-136089428D01*
X130643238Y-136089428D01*
X130738476Y-136041809D01*
X130786095Y-135994190D01*
X130833714Y-135898952D01*
%TO.C,J1*%
X122233880Y-127007333D02*
X122948166Y-127007333D01*
X123091023Y-127054952D01*
X123186261Y-127150190D01*
X123233880Y-127293047D01*
X123233880Y-127388285D01*
X123233880Y-126007333D02*
X123233880Y-126578761D01*
X123233880Y-126293047D02*
X122233880Y-126293047D01*
X122376738Y-126388285D01*
X122471976Y-126483523D01*
X122519595Y-126578761D01*
%TO.C,D2*%
X157503904Y-140566380D02*
X157503904Y-139566380D01*
X157742000Y-139566380D01*
X157884857Y-139614000D01*
X157980095Y-139709238D01*
X158027714Y-139804476D01*
X158075333Y-139994952D01*
X158075333Y-140137809D01*
X158027714Y-140328285D01*
X157980095Y-140423523D01*
X157884857Y-140518761D01*
X157742000Y-140566380D01*
X157503904Y-140566380D01*
X158456285Y-139661619D02*
X158503904Y-139614000D01*
X158599142Y-139566380D01*
X158837238Y-139566380D01*
X158932476Y-139614000D01*
X158980095Y-139661619D01*
X159027714Y-139756857D01*
X159027714Y-139852095D01*
X158980095Y-139994952D01*
X158408666Y-140566380D01*
X159027714Y-140566380D01*
%TO.C,D5*%
X192313380Y-124228904D02*
X191313380Y-124228904D01*
X191313380Y-123990809D01*
X191361000Y-123847952D01*
X191456238Y-123752714D01*
X191551476Y-123705095D01*
X191741952Y-123657476D01*
X191884809Y-123657476D01*
X192075285Y-123705095D01*
X192170523Y-123752714D01*
X192265761Y-123847952D01*
X192313380Y-123990809D01*
X192313380Y-124228904D01*
X191313380Y-122752714D02*
X191313380Y-123228904D01*
X191789571Y-123276523D01*
X191741952Y-123228904D01*
X191694333Y-123133666D01*
X191694333Y-122895571D01*
X191741952Y-122800333D01*
X191789571Y-122752714D01*
X191884809Y-122705095D01*
X192122904Y-122705095D01*
X192218142Y-122752714D01*
X192265761Y-122800333D01*
X192313380Y-122895571D01*
X192313380Y-123133666D01*
X192265761Y-123228904D01*
X192218142Y-123276523D01*
X194630523Y-124824261D02*
X193360523Y-124824261D01*
X193360523Y-124521880D01*
X193421000Y-124340452D01*
X193541952Y-124219500D01*
X193662904Y-124159023D01*
X193904809Y-124098547D01*
X194086238Y-124098547D01*
X194328142Y-124159023D01*
X194449095Y-124219500D01*
X194570047Y-124340452D01*
X194630523Y-124521880D01*
X194630523Y-124824261D01*
X194630523Y-123554261D02*
X193360523Y-123554261D01*
X193360523Y-122707595D02*
X193360523Y-122465690D01*
X193421000Y-122344738D01*
X193541952Y-122223785D01*
X193783857Y-122163309D01*
X194207190Y-122163309D01*
X194449095Y-122223785D01*
X194570047Y-122344738D01*
X194630523Y-122465690D01*
X194630523Y-122707595D01*
X194570047Y-122828547D01*
X194449095Y-122949500D01*
X194207190Y-123009976D01*
X193783857Y-123009976D01*
X193541952Y-122949500D01*
X193421000Y-122828547D01*
X193360523Y-122707595D01*
X194630523Y-121619023D02*
X193360523Y-121619023D01*
X193360523Y-121316642D01*
X193421000Y-121135214D01*
X193541952Y-121014261D01*
X193662904Y-120953785D01*
X193904809Y-120893309D01*
X194086238Y-120893309D01*
X194328142Y-120953785D01*
X194449095Y-121014261D01*
X194570047Y-121135214D01*
X194630523Y-121316642D01*
X194630523Y-121619023D01*
X193965285Y-120349023D02*
X193965285Y-119925690D01*
X194630523Y-119744261D02*
X194630523Y-120349023D01*
X193360523Y-120349023D01*
X193360523Y-119744261D01*
%TO.C,LiPO_IN1*%
X121254380Y-90619428D02*
X121254380Y-91095619D01*
X120254380Y-91095619D01*
X121254380Y-90286095D02*
X120587714Y-90286095D01*
X120254380Y-90286095D02*
X120302000Y-90333714D01*
X120349619Y-90286095D01*
X120302000Y-90238476D01*
X120254380Y-90286095D01*
X120349619Y-90286095D01*
X121254380Y-89809904D02*
X120254380Y-89809904D01*
X120254380Y-89428952D01*
X120302000Y-89333714D01*
X120349619Y-89286095D01*
X120444857Y-89238476D01*
X120587714Y-89238476D01*
X120682952Y-89286095D01*
X120730571Y-89333714D01*
X120778190Y-89428952D01*
X120778190Y-89809904D01*
X120254380Y-88619428D02*
X120254380Y-88428952D01*
X120302000Y-88333714D01*
X120397238Y-88238476D01*
X120587714Y-88190857D01*
X120921047Y-88190857D01*
X121111523Y-88238476D01*
X121206761Y-88333714D01*
X121254380Y-88428952D01*
X121254380Y-88619428D01*
X121206761Y-88714666D01*
X121111523Y-88809904D01*
X120921047Y-88857523D01*
X120587714Y-88857523D01*
X120397238Y-88809904D01*
X120302000Y-88714666D01*
X120254380Y-88619428D01*
X121349619Y-88000380D02*
X121349619Y-87238476D01*
X121254380Y-87000380D02*
X120254380Y-87000380D01*
X121254380Y-86524190D02*
X120254380Y-86524190D01*
X121254380Y-85952761D01*
X120254380Y-85952761D01*
X121254380Y-84952761D02*
X121254380Y-85524190D01*
X121254380Y-85238476D02*
X120254380Y-85238476D01*
X120397238Y-85333714D01*
X120492476Y-85428952D01*
X120540095Y-85524190D01*
D11*
%TO.C,L2*%
X169658523Y-98143666D02*
X169658523Y-98748428D01*
X168388523Y-98748428D01*
X168509476Y-97780809D02*
X168449000Y-97720333D01*
X168388523Y-97599380D01*
X168388523Y-97297000D01*
X168449000Y-97176047D01*
X168509476Y-97115571D01*
X168630428Y-97055095D01*
X168751380Y-97055095D01*
X168932809Y-97115571D01*
X169658523Y-97841285D01*
X169658523Y-97055095D01*
D10*
%TO.C,D7*%
X192313380Y-136928904D02*
X191313380Y-136928904D01*
X191313380Y-136690809D01*
X191361000Y-136547952D01*
X191456238Y-136452714D01*
X191551476Y-136405095D01*
X191741952Y-136357476D01*
X191884809Y-136357476D01*
X192075285Y-136405095D01*
X192170523Y-136452714D01*
X192265761Y-136547952D01*
X192313380Y-136690809D01*
X192313380Y-136928904D01*
X191313380Y-136024142D02*
X191313380Y-135357476D01*
X192313380Y-135786047D01*
X194630523Y-137524261D02*
X193360523Y-137524261D01*
X193360523Y-137221880D01*
X193421000Y-137040452D01*
X193541952Y-136919500D01*
X193662904Y-136859023D01*
X193904809Y-136798547D01*
X194086238Y-136798547D01*
X194328142Y-136859023D01*
X194449095Y-136919500D01*
X194570047Y-137040452D01*
X194630523Y-137221880D01*
X194630523Y-137524261D01*
X194630523Y-136254261D02*
X193360523Y-136254261D01*
X193360523Y-135407595D02*
X193360523Y-135165690D01*
X193421000Y-135044738D01*
X193541952Y-134923785D01*
X193783857Y-134863309D01*
X194207190Y-134863309D01*
X194449095Y-134923785D01*
X194570047Y-135044738D01*
X194630523Y-135165690D01*
X194630523Y-135407595D01*
X194570047Y-135528547D01*
X194449095Y-135649500D01*
X194207190Y-135709976D01*
X193783857Y-135709976D01*
X193541952Y-135649500D01*
X193421000Y-135528547D01*
X193360523Y-135407595D01*
X194630523Y-134319023D02*
X193360523Y-134319023D01*
X193360523Y-134016642D01*
X193421000Y-133835214D01*
X193541952Y-133714261D01*
X193662904Y-133653785D01*
X193904809Y-133593309D01*
X194086238Y-133593309D01*
X194328142Y-133653785D01*
X194449095Y-133714261D01*
X194570047Y-133835214D01*
X194630523Y-134016642D01*
X194630523Y-134319023D01*
X193965285Y-133049023D02*
X193965285Y-132625690D01*
X194630523Y-132444261D02*
X194630523Y-133049023D01*
X193360523Y-133049023D01*
X193360523Y-132444261D01*
%TO.C,ProgrammingPins1*%
X171776285Y-132242380D02*
X171776285Y-131242380D01*
X172157238Y-131242380D01*
X172252476Y-131290000D01*
X172300095Y-131337619D01*
X172347714Y-131432857D01*
X172347714Y-131575714D01*
X172300095Y-131670952D01*
X172252476Y-131718571D01*
X172157238Y-131766190D01*
X171776285Y-131766190D01*
X172776285Y-132242380D02*
X172776285Y-131575714D01*
X172776285Y-131766190D02*
X172823904Y-131670952D01*
X172871523Y-131623333D01*
X172966761Y-131575714D01*
X173062000Y-131575714D01*
X173538190Y-132242380D02*
X173442952Y-132194761D01*
X173395333Y-132147142D01*
X173347714Y-132051904D01*
X173347714Y-131766190D01*
X173395333Y-131670952D01*
X173442952Y-131623333D01*
X173538190Y-131575714D01*
X173681047Y-131575714D01*
X173776285Y-131623333D01*
X173823904Y-131670952D01*
X173871523Y-131766190D01*
X173871523Y-132051904D01*
X173823904Y-132147142D01*
X173776285Y-132194761D01*
X173681047Y-132242380D01*
X173538190Y-132242380D01*
X174728666Y-131575714D02*
X174728666Y-132385238D01*
X174681047Y-132480476D01*
X174633428Y-132528095D01*
X174538190Y-132575714D01*
X174395333Y-132575714D01*
X174300095Y-132528095D01*
X174728666Y-132194761D02*
X174633428Y-132242380D01*
X174442952Y-132242380D01*
X174347714Y-132194761D01*
X174300095Y-132147142D01*
X174252476Y-132051904D01*
X174252476Y-131766190D01*
X174300095Y-131670952D01*
X174347714Y-131623333D01*
X174442952Y-131575714D01*
X174633428Y-131575714D01*
X174728666Y-131623333D01*
X175204857Y-132242380D02*
X175204857Y-131575714D01*
X175204857Y-131766190D02*
X175252476Y-131670952D01*
X175300095Y-131623333D01*
X175395333Y-131575714D01*
X175490571Y-131575714D01*
X176252476Y-132242380D02*
X176252476Y-131718571D01*
X176204857Y-131623333D01*
X176109619Y-131575714D01*
X175919142Y-131575714D01*
X175823904Y-131623333D01*
X176252476Y-132194761D02*
X176157238Y-132242380D01*
X175919142Y-132242380D01*
X175823904Y-132194761D01*
X175776285Y-132099523D01*
X175776285Y-132004285D01*
X175823904Y-131909047D01*
X175919142Y-131861428D01*
X176157238Y-131861428D01*
X176252476Y-131813809D01*
X176728666Y-132242380D02*
X176728666Y-131575714D01*
X176728666Y-131670952D02*
X176776285Y-131623333D01*
X176871523Y-131575714D01*
X177014380Y-131575714D01*
X177109619Y-131623333D01*
X177157238Y-131718571D01*
X177157238Y-132242380D01*
X177157238Y-131718571D02*
X177204857Y-131623333D01*
X177300095Y-131575714D01*
X177442952Y-131575714D01*
X177538190Y-131623333D01*
X177585809Y-131718571D01*
X177585809Y-132242380D01*
X178062000Y-132242380D02*
X178062000Y-131575714D01*
X178062000Y-131670952D02*
X178109619Y-131623333D01*
X178204857Y-131575714D01*
X178347714Y-131575714D01*
X178442952Y-131623333D01*
X178490571Y-131718571D01*
X178490571Y-132242380D01*
X178490571Y-131718571D02*
X178538190Y-131623333D01*
X178633428Y-131575714D01*
X178776285Y-131575714D01*
X178871523Y-131623333D01*
X178919142Y-131718571D01*
X178919142Y-132242380D01*
X179395333Y-132242380D02*
X179395333Y-131575714D01*
X179395333Y-131242380D02*
X179347714Y-131290000D01*
X179395333Y-131337619D01*
X179442952Y-131290000D01*
X179395333Y-131242380D01*
X179395333Y-131337619D01*
X179871523Y-131575714D02*
X179871523Y-132242380D01*
X179871523Y-131670952D02*
X179919142Y-131623333D01*
X180014380Y-131575714D01*
X180157238Y-131575714D01*
X180252476Y-131623333D01*
X180300095Y-131718571D01*
X180300095Y-132242380D01*
X181204857Y-131575714D02*
X181204857Y-132385238D01*
X181157238Y-132480476D01*
X181109619Y-132528095D01*
X181014380Y-132575714D01*
X180871523Y-132575714D01*
X180776285Y-132528095D01*
X181204857Y-132194761D02*
X181109619Y-132242380D01*
X180919142Y-132242380D01*
X180823904Y-132194761D01*
X180776285Y-132147142D01*
X180728666Y-132051904D01*
X180728666Y-131766190D01*
X180776285Y-131670952D01*
X180823904Y-131623333D01*
X180919142Y-131575714D01*
X181109619Y-131575714D01*
X181204857Y-131623333D01*
X181681047Y-132242380D02*
X181681047Y-131242380D01*
X182062000Y-131242380D01*
X182157238Y-131290000D01*
X182204857Y-131337619D01*
X182252476Y-131432857D01*
X182252476Y-131575714D01*
X182204857Y-131670952D01*
X182157238Y-131718571D01*
X182062000Y-131766190D01*
X181681047Y-131766190D01*
X182681047Y-132242380D02*
X182681047Y-131575714D01*
X182681047Y-131242380D02*
X182633428Y-131290000D01*
X182681047Y-131337619D01*
X182728666Y-131290000D01*
X182681047Y-131242380D01*
X182681047Y-131337619D01*
X183157238Y-131575714D02*
X183157238Y-132242380D01*
X183157238Y-131670952D02*
X183204857Y-131623333D01*
X183300095Y-131575714D01*
X183442952Y-131575714D01*
X183538190Y-131623333D01*
X183585809Y-131718571D01*
X183585809Y-132242380D01*
X184014380Y-132194761D02*
X184109619Y-132242380D01*
X184300095Y-132242380D01*
X184395333Y-132194761D01*
X184442952Y-132099523D01*
X184442952Y-132051904D01*
X184395333Y-131956666D01*
X184300095Y-131909047D01*
X184157238Y-131909047D01*
X184062000Y-131861428D01*
X184014380Y-131766190D01*
X184014380Y-131718571D01*
X184062000Y-131623333D01*
X184157238Y-131575714D01*
X184300095Y-131575714D01*
X184395333Y-131623333D01*
X185395333Y-132242380D02*
X184823904Y-132242380D01*
X185109619Y-132242380D02*
X185109619Y-131242380D01*
X185014380Y-131385238D01*
X184919142Y-131480476D01*
X184823904Y-131528095D01*
%TO.C,D4*%
X192313380Y-118132904D02*
X191313380Y-118132904D01*
X191313380Y-117894809D01*
X191361000Y-117751952D01*
X191456238Y-117656714D01*
X191551476Y-117609095D01*
X191741952Y-117561476D01*
X191884809Y-117561476D01*
X192075285Y-117609095D01*
X192170523Y-117656714D01*
X192265761Y-117751952D01*
X192313380Y-117894809D01*
X192313380Y-118132904D01*
X191646714Y-116704333D02*
X192313380Y-116704333D01*
X191265761Y-116942428D02*
X191980047Y-117180523D01*
X191980047Y-116561476D01*
X194630523Y-118728261D02*
X193360523Y-118728261D01*
X193360523Y-118425880D01*
X193421000Y-118244452D01*
X193541952Y-118123500D01*
X193662904Y-118063023D01*
X193904809Y-118002547D01*
X194086238Y-118002547D01*
X194328142Y-118063023D01*
X194449095Y-118123500D01*
X194570047Y-118244452D01*
X194630523Y-118425880D01*
X194630523Y-118728261D01*
X194630523Y-117458261D02*
X193360523Y-117458261D01*
X193360523Y-116611595D02*
X193360523Y-116369690D01*
X193421000Y-116248738D01*
X193541952Y-116127785D01*
X193783857Y-116067309D01*
X194207190Y-116067309D01*
X194449095Y-116127785D01*
X194570047Y-116248738D01*
X194630523Y-116369690D01*
X194630523Y-116611595D01*
X194570047Y-116732547D01*
X194449095Y-116853500D01*
X194207190Y-116913976D01*
X193783857Y-116913976D01*
X193541952Y-116853500D01*
X193421000Y-116732547D01*
X193360523Y-116611595D01*
X194630523Y-115523023D02*
X193360523Y-115523023D01*
X193360523Y-115220642D01*
X193421000Y-115039214D01*
X193541952Y-114918261D01*
X193662904Y-114857785D01*
X193904809Y-114797309D01*
X194086238Y-114797309D01*
X194328142Y-114857785D01*
X194449095Y-114918261D01*
X194570047Y-115039214D01*
X194630523Y-115220642D01*
X194630523Y-115523023D01*
X193965285Y-114253023D02*
X193965285Y-113829690D01*
X194630523Y-113648261D02*
X194630523Y-114253023D01*
X193360523Y-114253023D01*
X193360523Y-113648261D01*
%TO.C,D1*%
X143279904Y-136944380D02*
X143279904Y-135944380D01*
X143518000Y-135944380D01*
X143660857Y-135992000D01*
X143756095Y-136087238D01*
X143803714Y-136182476D01*
X143851333Y-136372952D01*
X143851333Y-136515809D01*
X143803714Y-136706285D01*
X143756095Y-136801523D01*
X143660857Y-136896761D01*
X143518000Y-136944380D01*
X143279904Y-136944380D01*
X144803714Y-136944380D02*
X144232285Y-136944380D01*
X144518000Y-136944380D02*
X144518000Y-135944380D01*
X144422761Y-136087238D01*
X144327523Y-136182476D01*
X144232285Y-136230095D01*
%TO.C,JTAGExposure1*%
X161878000Y-139442380D02*
X161878000Y-140156666D01*
X161830380Y-140299523D01*
X161735142Y-140394761D01*
X161592285Y-140442380D01*
X161497047Y-140442380D01*
X162211333Y-139442380D02*
X162782761Y-139442380D01*
X162497047Y-140442380D02*
X162497047Y-139442380D01*
X163068476Y-140156666D02*
X163544666Y-140156666D01*
X162973238Y-140442380D02*
X163306571Y-139442380D01*
X163639904Y-140442380D01*
X164497047Y-139490000D02*
X164401809Y-139442380D01*
X164258952Y-139442380D01*
X164116095Y-139490000D01*
X164020857Y-139585238D01*
X163973238Y-139680476D01*
X163925619Y-139870952D01*
X163925619Y-140013809D01*
X163973238Y-140204285D01*
X164020857Y-140299523D01*
X164116095Y-140394761D01*
X164258952Y-140442380D01*
X164354190Y-140442380D01*
X164497047Y-140394761D01*
X164544666Y-140347142D01*
X164544666Y-140013809D01*
X164354190Y-140013809D01*
X164973238Y-139918571D02*
X165306571Y-139918571D01*
X165449428Y-140442380D02*
X164973238Y-140442380D01*
X164973238Y-139442380D01*
X165449428Y-139442380D01*
X165782761Y-140442380D02*
X166306571Y-139775714D01*
X165782761Y-139775714D02*
X166306571Y-140442380D01*
X166687523Y-139775714D02*
X166687523Y-140775714D01*
X166687523Y-139823333D02*
X166782761Y-139775714D01*
X166973238Y-139775714D01*
X167068476Y-139823333D01*
X167116095Y-139870952D01*
X167163714Y-139966190D01*
X167163714Y-140251904D01*
X167116095Y-140347142D01*
X167068476Y-140394761D01*
X166973238Y-140442380D01*
X166782761Y-140442380D01*
X166687523Y-140394761D01*
X167735142Y-140442380D02*
X167639904Y-140394761D01*
X167592285Y-140347142D01*
X167544666Y-140251904D01*
X167544666Y-139966190D01*
X167592285Y-139870952D01*
X167639904Y-139823333D01*
X167735142Y-139775714D01*
X167878000Y-139775714D01*
X167973238Y-139823333D01*
X168020857Y-139870952D01*
X168068476Y-139966190D01*
X168068476Y-140251904D01*
X168020857Y-140347142D01*
X167973238Y-140394761D01*
X167878000Y-140442380D01*
X167735142Y-140442380D01*
X168449428Y-140394761D02*
X168544666Y-140442380D01*
X168735142Y-140442380D01*
X168830380Y-140394761D01*
X168878000Y-140299523D01*
X168878000Y-140251904D01*
X168830380Y-140156666D01*
X168735142Y-140109047D01*
X168592285Y-140109047D01*
X168497047Y-140061428D01*
X168449428Y-139966190D01*
X168449428Y-139918571D01*
X168497047Y-139823333D01*
X168592285Y-139775714D01*
X168735142Y-139775714D01*
X168830380Y-139823333D01*
X169735142Y-139775714D02*
X169735142Y-140442380D01*
X169306571Y-139775714D02*
X169306571Y-140299523D01*
X169354190Y-140394761D01*
X169449428Y-140442380D01*
X169592285Y-140442380D01*
X169687523Y-140394761D01*
X169735142Y-140347142D01*
X170211333Y-140442380D02*
X170211333Y-139775714D01*
X170211333Y-139966190D02*
X170258952Y-139870952D01*
X170306571Y-139823333D01*
X170401809Y-139775714D01*
X170497047Y-139775714D01*
X171211333Y-140394761D02*
X171116095Y-140442380D01*
X170925619Y-140442380D01*
X170830380Y-140394761D01*
X170782761Y-140299523D01*
X170782761Y-139918571D01*
X170830380Y-139823333D01*
X170925619Y-139775714D01*
X171116095Y-139775714D01*
X171211333Y-139823333D01*
X171258952Y-139918571D01*
X171258952Y-140013809D01*
X170782761Y-140109047D01*
X172211333Y-140442380D02*
X171639904Y-140442380D01*
X171925619Y-140442380D02*
X171925619Y-139442380D01*
X171830380Y-139585238D01*
X171735142Y-139680476D01*
X171639904Y-139728095D01*
%TO.C,R10*%
X133485142Y-136470380D02*
X133151809Y-135994190D01*
X132913714Y-136470380D02*
X132913714Y-135470380D01*
X133294666Y-135470380D01*
X133389904Y-135518000D01*
X133437523Y-135565619D01*
X133485142Y-135660857D01*
X133485142Y-135803714D01*
X133437523Y-135898952D01*
X133389904Y-135946571D01*
X133294666Y-135994190D01*
X132913714Y-135994190D01*
X134437523Y-136470380D02*
X133866095Y-136470380D01*
X134151809Y-136470380D02*
X134151809Y-135470380D01*
X134056571Y-135613238D01*
X133961333Y-135708476D01*
X133866095Y-135756095D01*
X135056571Y-135470380D02*
X135151809Y-135470380D01*
X135247047Y-135518000D01*
X135294666Y-135565619D01*
X135342285Y-135660857D01*
X135389904Y-135851333D01*
X135389904Y-136089428D01*
X135342285Y-136279904D01*
X135294666Y-136375142D01*
X135247047Y-136422761D01*
X135151809Y-136470380D01*
X135056571Y-136470380D01*
X134961333Y-136422761D01*
X134913714Y-136375142D01*
X134866095Y-136279904D01*
X134818476Y-136089428D01*
X134818476Y-135851333D01*
X134866095Y-135660857D01*
X134913714Y-135565619D01*
X134961333Y-135518000D01*
X135056571Y-135470380D01*
%TO.C,R11*%
X138754380Y-98178857D02*
X138278190Y-98512190D01*
X138754380Y-98750285D02*
X137754380Y-98750285D01*
X137754380Y-98369333D01*
X137802000Y-98274095D01*
X137849619Y-98226476D01*
X137944857Y-98178857D01*
X138087714Y-98178857D01*
X138182952Y-98226476D01*
X138230571Y-98274095D01*
X138278190Y-98369333D01*
X138278190Y-98750285D01*
X138754380Y-97226476D02*
X138754380Y-97797904D01*
X138754380Y-97512190D02*
X137754380Y-97512190D01*
X137897238Y-97607428D01*
X137992476Y-97702666D01*
X138040095Y-97797904D01*
X138754380Y-96274095D02*
X138754380Y-96845523D01*
X138754380Y-96559809D02*
X137754380Y-96559809D01*
X137897238Y-96655047D01*
X137992476Y-96750285D01*
X138040095Y-96845523D01*
D11*
%TO.C,Y1*%
X135351761Y-120646761D02*
X135956523Y-120646761D01*
X134686523Y-121070095D02*
X135351761Y-120646761D01*
X134686523Y-120223428D01*
X135956523Y-119134857D02*
X135956523Y-119860571D01*
X135956523Y-119497714D02*
X134686523Y-119497714D01*
X134867952Y-119618666D01*
X134988904Y-119739619D01*
X135049380Y-119860571D01*
D10*
%TO.C,U4*%
X173323250Y-120980980D02*
X173323250Y-121219076D01*
X173085154Y-121123838D02*
X173323250Y-121219076D01*
X173561345Y-121123838D01*
X173180392Y-121409552D02*
X173323250Y-121219076D01*
X173466107Y-121409552D01*
X173323250Y-120980980D02*
X173323250Y-121219076D01*
X173085154Y-121123838D02*
X173323250Y-121219076D01*
X173561345Y-121123838D01*
X173180392Y-121409552D02*
X173323250Y-121219076D01*
X173466107Y-121409552D01*
%TO.C,D3*%
X145151595Y-81061380D02*
X145151595Y-80061380D01*
X145389690Y-80061380D01*
X145532547Y-80109000D01*
X145627785Y-80204238D01*
X145675404Y-80299476D01*
X145723023Y-80489952D01*
X145723023Y-80632809D01*
X145675404Y-80823285D01*
X145627785Y-80918523D01*
X145532547Y-81013761D01*
X145389690Y-81061380D01*
X145151595Y-81061380D01*
X146056357Y-80061380D02*
X146675404Y-80061380D01*
X146342071Y-80442333D01*
X146484928Y-80442333D01*
X146580166Y-80489952D01*
X146627785Y-80537571D01*
X146675404Y-80632809D01*
X146675404Y-80870904D01*
X146627785Y-80966142D01*
X146580166Y-81013761D01*
X146484928Y-81061380D01*
X146199214Y-81061380D01*
X146103976Y-81013761D01*
X146056357Y-80966142D01*
X144556238Y-83378523D02*
X144556238Y-82108523D01*
X144858619Y-82108523D01*
X145040047Y-82169000D01*
X145161000Y-82289952D01*
X145221476Y-82410904D01*
X145281952Y-82652809D01*
X145281952Y-82834238D01*
X145221476Y-83076142D01*
X145161000Y-83197095D01*
X145040047Y-83318047D01*
X144858619Y-83378523D01*
X144556238Y-83378523D01*
X145826238Y-83378523D02*
X145826238Y-82108523D01*
X146672904Y-82108523D02*
X146914809Y-82108523D01*
X147035761Y-82169000D01*
X147156714Y-82289952D01*
X147217190Y-82531857D01*
X147217190Y-82955190D01*
X147156714Y-83197095D01*
X147035761Y-83318047D01*
X146914809Y-83378523D01*
X146672904Y-83378523D01*
X146551952Y-83318047D01*
X146431000Y-83197095D01*
X146370523Y-82955190D01*
X146370523Y-82531857D01*
X146431000Y-82289952D01*
X146551952Y-82169000D01*
X146672904Y-82108523D01*
X147761476Y-83378523D02*
X147761476Y-82108523D01*
X148063857Y-82108523D01*
X148245285Y-82169000D01*
X148366238Y-82289952D01*
X148426714Y-82410904D01*
X148487190Y-82652809D01*
X148487190Y-82834238D01*
X148426714Y-83076142D01*
X148366238Y-83197095D01*
X148245285Y-83318047D01*
X148063857Y-83378523D01*
X147761476Y-83378523D01*
X149031476Y-82713285D02*
X149454809Y-82713285D01*
X149636238Y-83378523D02*
X149031476Y-83378523D01*
X149031476Y-82108523D01*
X149636238Y-82108523D01*
D12*
%TO.C,L1*%
X169246733Y-107444000D02*
X169589267Y-107444000D01*
X169246733Y-106424000D02*
X169589267Y-106424000D01*
%TO.C,C5*%
X171442748Y-105129000D02*
X171965252Y-105129000D01*
X171442748Y-103659000D02*
X171965252Y-103659000D01*
%TO.C,R2*%
X143991000Y-134138936D02*
X143991000Y-134593064D01*
X142521000Y-134138936D02*
X142521000Y-134593064D01*
%TO.C,U2*%
X160526000Y-108652000D02*
X160526000Y-107952000D01*
X146306000Y-121472000D02*
X146306000Y-122172000D01*
X159826000Y-107952000D02*
X159826000Y-106662000D01*
X160526000Y-121472000D02*
X160526000Y-122172000D01*
X146306000Y-122172000D02*
X147006000Y-122172000D01*
X160526000Y-107952000D02*
X159826000Y-107952000D01*
X146306000Y-107952000D02*
X147006000Y-107952000D01*
X146306000Y-108652000D02*
X146306000Y-107952000D01*
X160526000Y-122172000D02*
X159826000Y-122172000D01*
%TO.C,M1*%
X192274000Y-110706000D02*
X192274000Y-109706000D01*
X196854000Y-110706000D02*
X196854000Y-109706000D01*
X193764000Y-105286000D02*
X195364000Y-105286000D01*
X191224000Y-104686000D02*
X191224000Y-105286000D01*
X192024000Y-109706000D02*
X197104000Y-109706000D01*
X192024000Y-109706000D02*
X192274000Y-109176000D01*
X198484000Y-104686000D02*
X190644000Y-104686000D01*
X195364000Y-105286000D02*
X195364000Y-104686000D01*
X191224000Y-105286000D02*
X192824000Y-105286000D01*
X190644000Y-110706000D02*
X198484000Y-110706000D01*
X192824000Y-105286000D02*
X192824000Y-104686000D01*
X196304000Y-105286000D02*
X197904000Y-105286000D01*
X190354000Y-105716000D02*
X190354000Y-109716000D01*
X190644000Y-104686000D02*
X190644000Y-110706000D01*
X196854000Y-109176000D02*
X197104000Y-109706000D01*
X198484000Y-110706000D02*
X198484000Y-104686000D01*
X197104000Y-109706000D02*
X197104000Y-110706000D01*
X196304000Y-104686000D02*
X196304000Y-105286000D01*
X192274000Y-109176000D02*
X196854000Y-109176000D01*
X193764000Y-104686000D02*
X193764000Y-105286000D01*
X197904000Y-105286000D02*
X197904000Y-104686000D01*
X192024000Y-110706000D02*
X192024000Y-109706000D01*
%TO.C,Servo2TestConnection1*%
X184950000Y-115406000D02*
X184950000Y-114806000D01*
X181610000Y-119826000D02*
X181860000Y-119296000D01*
X185530000Y-114806000D02*
X180230000Y-114806000D01*
X181610000Y-119826000D02*
X184150000Y-119826000D01*
X183350000Y-115406000D02*
X184950000Y-115406000D01*
X183350000Y-114806000D02*
X183350000Y-115406000D01*
X183900000Y-120826000D02*
X183900000Y-119826000D01*
X180230000Y-120826000D02*
X185530000Y-120826000D01*
X184150000Y-119826000D02*
X184150000Y-120826000D01*
X182410000Y-115406000D02*
X182410000Y-114806000D01*
X180810000Y-115406000D02*
X182410000Y-115406000D01*
X181860000Y-119296000D02*
X183900000Y-119296000D01*
X180810000Y-114806000D02*
X180810000Y-115406000D01*
X185530000Y-120826000D02*
X185530000Y-114806000D01*
X179940000Y-115836000D02*
X179940000Y-119836000D01*
X183900000Y-119296000D02*
X184150000Y-119826000D01*
X180230000Y-114806000D02*
X180230000Y-120826000D01*
X181860000Y-120826000D02*
X181860000Y-119826000D01*
X181610000Y-120826000D02*
X181610000Y-119826000D01*
%TO.C,R4*%
X131599000Y-95530936D02*
X131599000Y-95985064D01*
X133069000Y-95530936D02*
X133069000Y-95985064D01*
D10*
%TO.C,D6*%
X192661000Y-131168500D02*
X192661000Y-126668500D01*
X195451000Y-131168500D02*
X195451000Y-126668500D01*
X195451000Y-131168500D02*
X195271000Y-131168500D01*
X192841000Y-126668500D02*
X192661000Y-126668500D01*
X192841000Y-131168500D02*
X192661000Y-131168500D01*
X195451000Y-126668500D02*
X195271000Y-126668500D01*
D13*
X194181000Y-132143500D02*
G75*
G03*
X194181000Y-132143500I-125000J0D01*
G01*
D12*
%TO.C,Shunt2*%
X176557000Y-119607064D02*
X176557000Y-119152936D01*
X178027000Y-119607064D02*
X178027000Y-119152936D01*
%TO.C,R6*%
X145822936Y-94715000D02*
X146277064Y-94715000D01*
X145822936Y-93245000D02*
X146277064Y-93245000D01*
%TO.C,U3*%
X171157900Y-126707900D02*
X172758100Y-126707900D01*
X172758100Y-124244100D02*
X171157900Y-124244100D01*
%TO.C,R9*%
X129820936Y-136933000D02*
X130275064Y-136933000D01*
X129820936Y-138403000D02*
X130275064Y-138403000D01*
%TO.C,C9*%
X122909000Y-110758248D02*
X122909000Y-111280752D01*
X121439000Y-110758248D02*
X121439000Y-111280752D01*
D14*
%TO.C,J1*%
X117651500Y-135014000D02*
X119951500Y-135014000D01*
X119951500Y-127114000D02*
X117651500Y-127114000D01*
X117651500Y-127114000D02*
X117651500Y-135014000D01*
X121740039Y-128999524D02*
X121740039Y-127999524D01*
X121751500Y-133114000D02*
X121751500Y-134114000D01*
X122801500Y-133114000D02*
X121751500Y-133114000D01*
D12*
%TO.C,C4*%
X142213000Y-113784748D02*
X142213000Y-114307252D01*
X140743000Y-113784748D02*
X140743000Y-114307252D01*
%TO.C,D2*%
X157442000Y-139419000D02*
X159902000Y-139419000D01*
X159902000Y-139419000D02*
X159902000Y-137949000D01*
X159902000Y-137949000D02*
X157442000Y-137949000D01*
D10*
%TO.C,D5*%
X195451000Y-120064500D02*
X195271000Y-120064500D01*
X195451000Y-124564500D02*
X195271000Y-124564500D01*
X192841000Y-124564500D02*
X192661000Y-124564500D01*
X195451000Y-124564500D02*
X195451000Y-120064500D01*
X192661000Y-124564500D02*
X192661000Y-120064500D01*
X192841000Y-120064500D02*
X192661000Y-120064500D01*
D13*
X194181000Y-125539500D02*
G75*
G03*
X194181000Y-125539500I-125000J0D01*
G01*
D12*
%TO.C,C2*%
X158777000Y-132849252D02*
X158777000Y-132326748D01*
X160247000Y-132849252D02*
X160247000Y-132326748D01*
%TO.C,C1*%
X143991000Y-129779752D02*
X143991000Y-129257248D01*
X142521000Y-129779752D02*
X142521000Y-129257248D01*
%TO.C,C3*%
X140743000Y-118594748D02*
X140743000Y-119117252D01*
X142213000Y-118594748D02*
X142213000Y-119117252D01*
%TO.C,M2*%
X184112000Y-105286000D02*
X185712000Y-105286000D01*
X188832000Y-110706000D02*
X188832000Y-104686000D01*
X187202000Y-109176000D02*
X187452000Y-109706000D01*
X187202000Y-110706000D02*
X187202000Y-109706000D01*
X182372000Y-109706000D02*
X187452000Y-109706000D01*
X184112000Y-104686000D02*
X184112000Y-105286000D01*
X181572000Y-104686000D02*
X181572000Y-105286000D01*
X180992000Y-104686000D02*
X180992000Y-110706000D01*
X185712000Y-105286000D02*
X185712000Y-104686000D01*
X188252000Y-105286000D02*
X188252000Y-104686000D01*
X183172000Y-105286000D02*
X183172000Y-104686000D01*
X187452000Y-109706000D02*
X187452000Y-110706000D01*
X188832000Y-104686000D02*
X180992000Y-104686000D01*
X180702000Y-105716000D02*
X180702000Y-109716000D01*
X181572000Y-105286000D02*
X183172000Y-105286000D01*
X186652000Y-105286000D02*
X188252000Y-105286000D01*
X182622000Y-110706000D02*
X182622000Y-109706000D01*
X186652000Y-104686000D02*
X186652000Y-105286000D01*
X182372000Y-109706000D02*
X182622000Y-109176000D01*
X182372000Y-110706000D02*
X182372000Y-109706000D01*
X180992000Y-110706000D02*
X188832000Y-110706000D01*
X182622000Y-109176000D02*
X187202000Y-109176000D01*
D15*
%TO.C,L2*%
X159484000Y-96032000D02*
X158984000Y-95532000D01*
X159484000Y-96032000D02*
X169184000Y-96032000D01*
X158984000Y-85832000D02*
X169184000Y-85832000D01*
D10*
%TO.C,U1*%
X153243000Y-125993000D02*
X147493000Y-125993000D01*
X153243000Y-125993000D02*
X153243000Y-126643000D01*
X147493000Y-136643000D02*
X147493000Y-135993000D01*
X147493000Y-125993000D02*
X147493000Y-126643000D01*
X153243000Y-136643000D02*
X147493000Y-136643000D01*
X153243000Y-136068000D02*
X154843000Y-136068000D01*
X153243000Y-136643000D02*
X153243000Y-136068000D01*
D12*
%TO.C,ODriveConnector2*%
X178438000Y-92748000D02*
X178438000Y-91148000D01*
X177838000Y-100368000D02*
X178438000Y-100368000D01*
X178438000Y-95288000D02*
X178438000Y-93688000D01*
X183858000Y-99568000D02*
X182858000Y-99568000D01*
X178438000Y-93688000D02*
X177838000Y-93688000D01*
X182328000Y-92198000D02*
X182858000Y-91948000D01*
X183858000Y-100948000D02*
X183858000Y-90568000D01*
X182858000Y-91948000D02*
X183858000Y-91948000D01*
X182858000Y-99568000D02*
X182328000Y-99318000D01*
X177838000Y-90568000D02*
X177838000Y-100948000D01*
X183858000Y-90568000D02*
X177838000Y-90568000D01*
X178868000Y-101238000D02*
X182868000Y-101238000D01*
X177838000Y-92748000D02*
X178438000Y-92748000D01*
X177838000Y-100948000D02*
X183858000Y-100948000D01*
X183858000Y-92198000D02*
X182858000Y-92198000D01*
X177838000Y-97828000D02*
X178438000Y-97828000D01*
X182328000Y-99318000D02*
X182328000Y-92198000D01*
X178438000Y-97828000D02*
X178438000Y-96228000D01*
X183858000Y-99318000D02*
X182858000Y-99318000D01*
X178438000Y-96228000D02*
X177838000Y-96228000D01*
X182858000Y-99568000D02*
X182858000Y-91948000D01*
X178438000Y-91148000D02*
X177838000Y-91148000D01*
X177838000Y-95288000D02*
X178438000Y-95288000D01*
X178438000Y-98768000D02*
X177838000Y-98768000D01*
X178438000Y-100368000D02*
X178438000Y-98768000D01*
%TO.C,U5*%
X137481416Y-89388000D02*
X135742000Y-89388000D01*
X140902584Y-94508000D02*
X141142000Y-94508000D01*
X140902584Y-89388000D02*
X141142000Y-89388000D01*
X137481416Y-94508000D02*
X137242000Y-94508000D01*
%TO.C,C10*%
X150849000Y-92187752D02*
X150849000Y-91665248D01*
X149379000Y-92187752D02*
X149379000Y-91665248D01*
%TO.C,C14*%
X136099248Y-81815000D02*
X136621752Y-81815000D01*
X136099248Y-83285000D02*
X136621752Y-83285000D01*
%TO.C,Shunt1*%
X177773000Y-125703064D02*
X177773000Y-125248936D01*
X176303000Y-125703064D02*
X176303000Y-125248936D01*
%TO.C,C12*%
X131599000Y-87368748D02*
X131599000Y-87891252D01*
X133069000Y-87368748D02*
X133069000Y-87891252D01*
%TO.C,SW1*%
X141152000Y-110418000D02*
X141152000Y-110388000D01*
X134692000Y-110418000D02*
X134692000Y-110388000D01*
X134692000Y-103958000D02*
X141152000Y-103958000D01*
X141152000Y-103958000D02*
X141152000Y-103988000D01*
X134692000Y-103988000D02*
X134692000Y-103958000D01*
X141152000Y-105888000D02*
X141152000Y-108488000D01*
X134692000Y-105888000D02*
X134692000Y-108488000D01*
X134692000Y-110418000D02*
X141152000Y-110418000D01*
%TO.C,Servo1TestConnection1*%
X181860000Y-127190000D02*
X183900000Y-127190000D01*
X181610000Y-127720000D02*
X184150000Y-127720000D01*
X181610000Y-127720000D02*
X181860000Y-127190000D01*
X179940000Y-123730000D02*
X179940000Y-127730000D01*
X183350000Y-122700000D02*
X183350000Y-123300000D01*
X180810000Y-123300000D02*
X182410000Y-123300000D01*
X182410000Y-123300000D02*
X182410000Y-122700000D01*
X185530000Y-122700000D02*
X180230000Y-122700000D01*
X183350000Y-123300000D02*
X184950000Y-123300000D01*
X181860000Y-128720000D02*
X181860000Y-127720000D01*
X183900000Y-128720000D02*
X183900000Y-127720000D01*
X184150000Y-127720000D02*
X184150000Y-128720000D01*
X180230000Y-128720000D02*
X185530000Y-128720000D01*
X180810000Y-122700000D02*
X180810000Y-123300000D01*
X181610000Y-128720000D02*
X181610000Y-127720000D01*
X183900000Y-127190000D02*
X184150000Y-127720000D01*
X184950000Y-123300000D02*
X184950000Y-122700000D01*
X185530000Y-128720000D02*
X185530000Y-122700000D01*
X180230000Y-122700000D02*
X180230000Y-128720000D01*
%TO.C,ODriveConnector1*%
X195796000Y-92198000D02*
X194796000Y-92198000D01*
X194796000Y-91948000D02*
X195796000Y-91948000D01*
X194796000Y-99568000D02*
X194266000Y-99318000D01*
X195796000Y-99318000D02*
X194796000Y-99318000D01*
X190376000Y-91148000D02*
X189776000Y-91148000D01*
X189776000Y-95288000D02*
X190376000Y-95288000D01*
X190806000Y-101238000D02*
X194806000Y-101238000D01*
X189776000Y-90568000D02*
X189776000Y-100948000D01*
X194796000Y-99568000D02*
X194796000Y-91948000D01*
X195796000Y-99568000D02*
X194796000Y-99568000D01*
X190376000Y-92748000D02*
X190376000Y-91148000D01*
X190376000Y-97828000D02*
X190376000Y-96228000D01*
X195796000Y-90568000D02*
X189776000Y-90568000D01*
X190376000Y-95288000D02*
X190376000Y-93688000D01*
X190376000Y-100368000D02*
X190376000Y-98768000D01*
X189776000Y-97828000D02*
X190376000Y-97828000D01*
X190376000Y-93688000D02*
X189776000Y-93688000D01*
X189776000Y-100948000D02*
X195796000Y-100948000D01*
X189776000Y-100368000D02*
X190376000Y-100368000D01*
X194266000Y-99318000D02*
X194266000Y-92198000D01*
X195796000Y-100948000D02*
X195796000Y-90568000D01*
X194266000Y-92198000D02*
X194796000Y-91948000D01*
X190376000Y-98768000D02*
X189776000Y-98768000D01*
X190376000Y-96228000D02*
X189776000Y-96228000D01*
X189776000Y-92748000D02*
X190376000Y-92748000D01*
D10*
%TO.C,D7*%
X195451000Y-137264500D02*
X195271000Y-137264500D01*
X192841000Y-137264500D02*
X192661000Y-137264500D01*
X192661000Y-137264500D02*
X192661000Y-132764500D01*
X195451000Y-132764500D02*
X195271000Y-132764500D01*
X192841000Y-132764500D02*
X192661000Y-132764500D01*
X195451000Y-137264500D02*
X195451000Y-132764500D01*
D13*
X194181000Y-138239500D02*
G75*
G03*
X194181000Y-138239500I-125000J0D01*
G01*
D12*
%TO.C,ProgrammingPins1*%
X174752000Y-137900000D02*
X175002000Y-137370000D01*
X181572000Y-132880000D02*
X181572000Y-133480000D01*
X175002000Y-137370000D02*
X182122000Y-137370000D01*
X173372000Y-132880000D02*
X173372000Y-138900000D01*
X180632000Y-133480000D02*
X180632000Y-132880000D01*
X173952000Y-133480000D02*
X175552000Y-133480000D01*
X173952000Y-132880000D02*
X173952000Y-133480000D01*
X182122000Y-138900000D02*
X182122000Y-137900000D01*
X182372000Y-137900000D02*
X182372000Y-138900000D01*
X179032000Y-133480000D02*
X180632000Y-133480000D01*
X182122000Y-137370000D02*
X182372000Y-137900000D01*
X183172000Y-133480000D02*
X183172000Y-132880000D01*
X179032000Y-132880000D02*
X179032000Y-133480000D01*
X174752000Y-138900000D02*
X174752000Y-137900000D01*
X173082000Y-133910000D02*
X173082000Y-137910000D01*
X175552000Y-133480000D02*
X175552000Y-132880000D01*
X174752000Y-137900000D02*
X182372000Y-137900000D01*
X176492000Y-132880000D02*
X176492000Y-133480000D01*
X175002000Y-138900000D02*
X175002000Y-137900000D01*
X181572000Y-133480000D02*
X183172000Y-133480000D01*
X183752000Y-138900000D02*
X183752000Y-132880000D01*
X173372000Y-138900000D02*
X183752000Y-138900000D01*
X176492000Y-133480000D02*
X178092000Y-133480000D01*
X183752000Y-132880000D02*
X173372000Y-132880000D01*
X178092000Y-133480000D02*
X178092000Y-132880000D01*
%TO.C,C6*%
X122909000Y-96788248D02*
X122909000Y-97310752D01*
X121439000Y-96788248D02*
X121439000Y-97310752D01*
%TO.C,R1*%
X174270936Y-108431000D02*
X174725064Y-108431000D01*
X174270936Y-106961000D02*
X174725064Y-106961000D01*
%TO.C,R5*%
X133069000Y-99864936D02*
X133069000Y-100319064D01*
X131599000Y-99864936D02*
X131599000Y-100319064D01*
D10*
%TO.C,D4*%
X195451000Y-118468500D02*
X195451000Y-113968500D01*
X192841000Y-118468500D02*
X192661000Y-118468500D01*
X195451000Y-118468500D02*
X195271000Y-118468500D01*
X192841000Y-113968500D02*
X192661000Y-113968500D01*
X192661000Y-118468500D02*
X192661000Y-113968500D01*
X195451000Y-113968500D02*
X195271000Y-113968500D01*
D13*
X194181000Y-119443500D02*
G75*
G03*
X194181000Y-119443500I-125000J0D01*
G01*
D12*
%TO.C,C13*%
X140885248Y-81899000D02*
X141407752Y-81899000D01*
X140885248Y-83369000D02*
X141407752Y-83369000D01*
%TO.C,C15*%
X131289248Y-83285000D02*
X131811752Y-83285000D01*
X131289248Y-81815000D02*
X131811752Y-81815000D01*
%TO.C,D1*%
X144818000Y-137187000D02*
X142358000Y-137187000D01*
X142358000Y-137187000D02*
X142358000Y-138657000D01*
X142358000Y-138657000D02*
X144818000Y-138657000D01*
%TO.C,C8*%
X122909000Y-106164748D02*
X122909000Y-106687252D01*
X121439000Y-106164748D02*
X121439000Y-106687252D01*
%TO.C,C7*%
X121439000Y-101614248D02*
X121439000Y-102136752D01*
X122909000Y-101614248D02*
X122909000Y-102136752D01*
%TO.C,JTAGExposure1*%
X161688000Y-138900000D02*
X172068000Y-138900000D01*
X168948000Y-138300000D02*
X167348000Y-138300000D01*
X164808000Y-138300000D02*
X164808000Y-138900000D01*
X162268000Y-138300000D02*
X162268000Y-138900000D01*
X168948000Y-138900000D02*
X168948000Y-138300000D01*
X172358000Y-137870000D02*
X172358000Y-133870000D01*
X163868000Y-138300000D02*
X162268000Y-138300000D01*
X172068000Y-138900000D02*
X172068000Y-132880000D01*
X170438000Y-134410000D02*
X163318000Y-134410000D01*
X170688000Y-133880000D02*
X163068000Y-133880000D01*
X171488000Y-138300000D02*
X169888000Y-138300000D01*
X170688000Y-132880000D02*
X170688000Y-133880000D01*
X172068000Y-132880000D02*
X161688000Y-132880000D01*
X163068000Y-133880000D02*
X163068000Y-132880000D01*
X170438000Y-132880000D02*
X170438000Y-133880000D01*
X163318000Y-132880000D02*
X163318000Y-133880000D01*
X169888000Y-138300000D02*
X169888000Y-138900000D01*
X170688000Y-133880000D02*
X170438000Y-134410000D01*
X163318000Y-134410000D02*
X163068000Y-133880000D01*
X167348000Y-138300000D02*
X167348000Y-138900000D01*
X163868000Y-138900000D02*
X163868000Y-138300000D01*
X166408000Y-138300000D02*
X164808000Y-138300000D01*
X166408000Y-138900000D02*
X166408000Y-138300000D01*
X171488000Y-138900000D02*
X171488000Y-138300000D01*
X161688000Y-132880000D02*
X161688000Y-138900000D01*
%TO.C,R8*%
X156691000Y-93498936D02*
X156691000Y-93953064D01*
X155221000Y-93498936D02*
X155221000Y-93953064D01*
%TO.C,C11*%
X144553000Y-89146748D02*
X144553000Y-89669252D01*
X146023000Y-89146748D02*
X146023000Y-89669252D01*
%TO.C,R10*%
X133900936Y-136933000D02*
X134355064Y-136933000D01*
X133900936Y-138403000D02*
X134355064Y-138403000D01*
%TO.C,R11*%
X135917000Y-97308936D02*
X135917000Y-97763064D01*
X137387000Y-97308936D02*
X137387000Y-97763064D01*
%TO.C,R3*%
X158014936Y-135155000D02*
X158469064Y-135155000D01*
X158014936Y-136625000D02*
X158469064Y-136625000D01*
D16*
%TO.C,Y1*%
X137732000Y-123142000D02*
X137732000Y-123142000D01*
X133032000Y-123142000D02*
X133032000Y-116942000D01*
D14*
X135382000Y-114202000D02*
X135382000Y-114202000D01*
X135382000Y-114102000D02*
X135382000Y-114102000D01*
D16*
X137732000Y-116942000D02*
X137732000Y-123142000D01*
X133032000Y-116942000D02*
X133032000Y-116942000D01*
X133032000Y-123142000D02*
G75*
G03*
X137732000Y-123142000I2350000J0D01*
G01*
D14*
X135382000Y-114202000D02*
G75*
G03*
X135382000Y-114102000I0J50000D01*
G01*
X135382000Y-114102000D02*
G75*
G03*
X135382000Y-114202000I0J-50000D01*
G01*
D16*
X137732000Y-116942000D02*
G75*
G03*
X133032000Y-116942000I-2350000J0D01*
G01*
D12*
%TO.C,U4*%
X172758100Y-118148100D02*
X171157900Y-118148100D01*
X171157900Y-120611900D02*
X172758100Y-120611900D01*
%TO.C,R7*%
X155221000Y-87148936D02*
X155221000Y-87603064D01*
X156691000Y-87148936D02*
X156691000Y-87603064D01*
D10*
%TO.C,D3*%
X144816000Y-81409000D02*
X149316000Y-81409000D01*
X144816000Y-84199000D02*
X144816000Y-84019000D01*
X149316000Y-84199000D02*
X149316000Y-84019000D01*
X144816000Y-84199000D02*
X149316000Y-84199000D01*
X149316000Y-81589000D02*
X149316000Y-81409000D01*
X144816000Y-81589000D02*
X144816000Y-81409000D01*
D13*
X143966000Y-82804000D02*
G75*
G03*
X143966000Y-82804000I-125000J0D01*
G01*
%TD*%
M02*
