%TF.GenerationSoftware,KiCad,Pcbnew,(6.0.7)*%
%TF.CreationDate,2022-11-16T17:50:00-06:00*%
%TF.ProjectId,ECE445PCBDesign (4),45434534-3435-4504-9342-44657369676e,rev?*%
%TF.SameCoordinates,Original*%
%TF.FileFunction,Copper,L2,Bot*%
%TF.FilePolarity,Positive*%
%FSLAX46Y46*%
G04 Gerber Fmt 4.6, Leading zero omitted, Abs format (unit mm)*
G04 Created by KiCad (PCBNEW (6.0.7)) date 2022-11-16 17:50:00*
%MOMM*%
%LPD*%
G01*
G04 APERTURE LIST*
G04 Aperture macros list*
%AMRoundRect*
0 Rectangle with rounded corners*
0 $1 Rounding radius*
0 $2 $3 $4 $5 $6 $7 $8 $9 X,Y pos of 4 corners*
0 Add a 4 corners polygon primitive as box body*
4,1,4,$2,$3,$4,$5,$6,$7,$8,$9,$2,$3,0*
0 Add four circle primitives for the rounded corners*
1,1,$1+$1,$2,$3*
1,1,$1+$1,$4,$5*
1,1,$1+$1,$6,$7*
1,1,$1+$1,$8,$9*
0 Add four rect primitives between the rounded corners*
20,1,$1+$1,$2,$3,$4,$5,0*
20,1,$1+$1,$4,$5,$6,$7,0*
20,1,$1+$1,$6,$7,$8,$9,0*
20,1,$1+$1,$8,$9,$2,$3,0*%
G04 Aperture macros list end*
%TA.AperFunction,ComponentPad*%
%ADD10RoundRect,0.250000X-0.620000X-0.845000X0.620000X-0.845000X0.620000X0.845000X-0.620000X0.845000X0*%
%TD*%
%TA.AperFunction,ComponentPad*%
%ADD11O,1.740000X2.190000*%
%TD*%
%TA.AperFunction,ComponentPad*%
%ADD12RoundRect,0.250002X1.699998X-1.699998X1.699998X1.699998X-1.699998X1.699998X-1.699998X-1.699998X0*%
%TD*%
%TA.AperFunction,ComponentPad*%
%ADD13C,3.900000*%
%TD*%
%TA.AperFunction,ComponentPad*%
%ADD14RoundRect,0.250000X0.845000X-0.620000X0.845000X0.620000X-0.845000X0.620000X-0.845000X-0.620000X0*%
%TD*%
%TA.AperFunction,ComponentPad*%
%ADD15O,2.190000X1.740000*%
%TD*%
%TA.AperFunction,ComponentPad*%
%ADD16C,0.500000*%
%TD*%
%TA.AperFunction,SMDPad,CuDef*%
%ADD17R,1.800000X3.100000*%
%TD*%
%TA.AperFunction,ComponentPad*%
%ADD18RoundRect,0.250000X0.620000X0.845000X-0.620000X0.845000X-0.620000X-0.845000X0.620000X-0.845000X0*%
%TD*%
%TA.AperFunction,ComponentPad*%
%ADD19R,1.192000X1.192000*%
%TD*%
%TA.AperFunction,ComponentPad*%
%ADD20C,1.192000*%
%TD*%
%TA.AperFunction,ViaPad*%
%ADD21C,0.800000*%
%TD*%
%TA.AperFunction,Conductor*%
%ADD22C,0.254000*%
%TD*%
%TA.AperFunction,Conductor*%
%ADD23C,0.508000*%
%TD*%
%TA.AperFunction,Conductor*%
%ADD24C,0.762000*%
%TD*%
G04 APERTURE END LIST*
D10*
%TO.P,M1,1,PWM*%
%TO.N,/ServoPWM1*%
X192024000Y-107716000D03*
D11*
%TO.P,M1,2,+*%
%TO.N,Net-(M1-Pad2)*%
X194564000Y-107716000D03*
%TO.P,M1,3,-*%
%TO.N,GND*%
X197104000Y-107716000D03*
%TD*%
D10*
%TO.P,Servo2TestConnection1,1,Pin_1*%
%TO.N,Net-(Servo2TestConnection1-Pad1)*%
X181610000Y-117836000D03*
D11*
%TO.P,Servo2TestConnection1,2,Pin_2*%
%TO.N,GND*%
X184150000Y-117836000D03*
%TD*%
D12*
%TO.P,LiPO_IN1,1,Pin_1*%
%TO.N,GND*%
X123952000Y-91948000D03*
D13*
%TO.P,LiPO_IN1,2,Pin_2*%
%TO.N,Net-(C6-Pad2)*%
X123952000Y-84148000D03*
%TD*%
D10*
%TO.P,M2,1,PWM*%
%TO.N,/ServoPWM2*%
X182372000Y-107716000D03*
D11*
%TO.P,M2,2,+*%
%TO.N,Net-(M2-Pad2)*%
X184912000Y-107716000D03*
%TO.P,M2,3,-*%
%TO.N,GND*%
X187452000Y-107716000D03*
%TD*%
D14*
%TO.P,ODriveConnector2,1,Pin_1*%
%TO.N,/ODriveUARTTX2*%
X180868000Y-99568000D03*
D15*
%TO.P,ODriveConnector2,2,Pin_2*%
%TO.N,/ODriveUARTRX2*%
X180868000Y-97028000D03*
%TO.P,ODriveConnector2,3,Pin_3*%
%TO.N,GND*%
X180868000Y-94488000D03*
%TO.P,ODriveConnector2,4,Pin_4*%
%TO.N,+5V*%
X180868000Y-91948000D03*
%TD*%
D16*
%TO.P,U5,9,GND*%
%TO.N,Net-(C13-Pad1)*%
X138542000Y-91948000D03*
X138542000Y-90648000D03*
X139842000Y-90648000D03*
D17*
X139192000Y-91948000D03*
D16*
X139842000Y-93248000D03*
X138542000Y-93248000D03*
X139842000Y-91948000D03*
%TD*%
D10*
%TO.P,Servo1TestConnection1,1,Pin_1*%
%TO.N,Net-(Servo1TestConnection1-Pad1)*%
X181610000Y-125730000D03*
D11*
%TO.P,Servo1TestConnection1,2,Pin_2*%
%TO.N,GND*%
X184150000Y-125730000D03*
%TD*%
D14*
%TO.P,ODriveConnector1,1,Pin_1*%
%TO.N,/ODriveUARTTX1*%
X192806000Y-99568000D03*
D15*
%TO.P,ODriveConnector1,2,Pin_2*%
%TO.N,/ODriveUARTRX1*%
X192806000Y-97028000D03*
%TO.P,ODriveConnector1,3,Pin_3*%
%TO.N,GND*%
X192806000Y-94488000D03*
%TO.P,ODriveConnector1,4,Pin_4*%
%TO.N,+5V*%
X192806000Y-91948000D03*
%TD*%
D10*
%TO.P,ProgrammingPins1,1,Pin_1*%
%TO.N,Net-(U2-Pad93)*%
X174752000Y-135910000D03*
D11*
%TO.P,ProgrammingPins1,2,Pin_2*%
%TO.N,Net-(U2-Pad92)*%
X177292000Y-135910000D03*
%TO.P,ProgrammingPins1,3,Pin_3*%
%TO.N,Net-(U2-Pad91)*%
X179832000Y-135910000D03*
%TO.P,ProgrammingPins1,4,Pin_4*%
%TO.N,Net-(U2-Pad90)*%
X182372000Y-135910000D03*
%TD*%
D18*
%TO.P,JTAGExposure1,1,Pin_1*%
%TO.N,Net-(U2-Pad20)*%
X170688000Y-135870000D03*
D11*
%TO.P,JTAGExposure1,2,Pin_2*%
%TO.N,Net-(U2-Pad21)*%
X168148000Y-135870000D03*
%TO.P,JTAGExposure1,3,Pin_3*%
%TO.N,Net-(U2-Pad22)*%
X165608000Y-135870000D03*
%TO.P,JTAGExposure1,4,Pin_4*%
%TO.N,Net-(C2-Pad2)*%
X163068000Y-135870000D03*
%TD*%
D19*
%TO.P,Y1,1,1*%
%TO.N,Net-(C4-Pad2)*%
X135382000Y-117602000D03*
D20*
%TO.P,Y1,2,2*%
%TO.N,Net-(C3-Pad2)*%
X135382000Y-122482000D03*
%TD*%
D21*
%TO.N,GND*%
X181864000Y-122174000D03*
X144780000Y-134366000D03*
X149230714Y-125597286D03*
X151384000Y-125730000D03*
X150108286Y-130815714D03*
X171987502Y-125476000D03*
X152146000Y-105664000D03*
X164338000Y-107696000D03*
X150876000Y-96012000D03*
X152908000Y-98044000D03*
X174752000Y-120396000D03*
X183642000Y-121757500D03*
X187452000Y-123698000D03*
X165100000Y-105664000D03*
X197612000Y-112268000D03*
X198628000Y-115316000D03*
X148336000Y-129540000D03*
X154940000Y-106062500D03*
X144780000Y-132080000D03*
%TO.N,+5V*%
X192024000Y-121158000D03*
X152146000Y-135128000D03*
X189484000Y-120904000D03*
X154432000Y-100076000D03*
X154178000Y-138684000D03*
X149606000Y-135636000D03*
X154178000Y-110998000D03*
X151892000Y-108966000D03*
X165862000Y-90932000D03*
X164846000Y-82550000D03*
X179070000Y-124206000D03*
X179324000Y-120904000D03*
X159004000Y-110744000D03*
X151638000Y-133858000D03*
X147320000Y-112268000D03*
X148590000Y-130556000D03*
X173482000Y-123952000D03*
X187452000Y-120904000D03*
X153924000Y-116586000D03*
X148336000Y-104648000D03*
X175514000Y-121158000D03*
%TO.N,Net-(C12-Pad1)*%
X152146000Y-87884000D03*
X136398000Y-86614000D03*
X142494000Y-86614000D03*
X157734000Y-90678000D03*
%TO.N,/ServoPWM1*%
X145542000Y-106426000D03*
X189992000Y-106426000D03*
%TO.N,/ServoPWM2*%
X150114000Y-105664000D03*
X156210000Y-104902000D03*
X161036000Y-104902000D03*
X180340000Y-108458000D03*
%TO.N,/ODriveUARTTX1*%
X147320000Y-118110000D03*
X150362286Y-116326286D03*
X156718000Y-109220000D03*
X158750000Y-104140000D03*
%TO.N,/ODriveUARTRX1*%
X157480000Y-104140000D03*
X148336000Y-119126000D03*
X151638000Y-116078000D03*
X155448000Y-109220000D03*
%TO.N,Net-(R2-Pad1)*%
X149854286Y-132847714D03*
X145034000Y-133096000D03*
%TO.N,/ContDataIn*%
X155718464Y-135398464D03*
X157988000Y-111835500D03*
%TO.N,Net-(U2-Pad20)*%
X151892000Y-119380000D03*
X150368000Y-112014000D03*
X160157797Y-123802776D03*
X150368000Y-109474000D03*
%TO.N,/ContDataOut*%
X160676017Y-107028555D03*
X157018424Y-129355636D03*
%TO.N,Net-(U2-Pad21)*%
X159451042Y-124509531D03*
X151892000Y-120387997D03*
X149352000Y-112522000D03*
X149098000Y-109728000D03*
%TO.N,Net-(U2-Pad22)*%
X150368000Y-121387500D03*
X147314286Y-109214286D03*
X158744286Y-125216286D03*
X148336000Y-112014000D03*
%TO.N,Net-(U2-Pad93)*%
X158242000Y-120650000D03*
X161290000Y-123698000D03*
%TO.N,/ServoCurrent1*%
X171704000Y-127508000D03*
X191262000Y-122936000D03*
%TO.N,/ServoCurrent2*%
X189992000Y-123190000D03*
X171894584Y-120181099D03*
%TO.N,Net-(C2-Pad2)*%
X160782000Y-129032000D03*
X164846000Y-116586000D03*
X164338000Y-109982000D03*
X151130000Y-110490000D03*
%TO.N,Net-(U2-Pad92)*%
X163068000Y-124448572D03*
X157739714Y-119120286D03*
%TO.N,Net-(U2-Pad91)*%
X162814000Y-122936000D03*
X157988000Y-117602000D03*
%TO.N,Net-(U2-Pad90)*%
X163322000Y-121920000D03*
X158750000Y-116332000D03*
%TO.N,Net-(U1-Pad19)*%
X144780000Y-129540000D03*
X140462000Y-133858000D03*
%TD*%
D22*
%TO.N,GND*%
X174752000Y-120396000D02*
X171987502Y-123160498D01*
X148832572Y-129540000D02*
X148336000Y-129540000D01*
X150108286Y-130815714D02*
X148832572Y-129540000D01*
X185511500Y-121757500D02*
X183642000Y-121757500D01*
X144780000Y-132080000D02*
X144307000Y-132553000D01*
X152544500Y-106062500D02*
X152146000Y-105664000D01*
X164338000Y-106426000D02*
X165100000Y-105664000D01*
X171987502Y-123160498D02*
X171987502Y-125476000D01*
X176022000Y-120637866D02*
X176022000Y-120396000D01*
X164338000Y-107696000D02*
X164338000Y-106426000D01*
X151384000Y-125730000D02*
X149363428Y-125730000D01*
X176022000Y-120396000D02*
X174752000Y-120396000D01*
X144307000Y-133893000D02*
X144780000Y-134366000D01*
X181864000Y-122174000D02*
X177558134Y-122174000D01*
X197612000Y-114300000D02*
X197612000Y-112268000D01*
X150876000Y-96012000D02*
X152908000Y-98044000D01*
X154940000Y-106062500D02*
X152544500Y-106062500D01*
X177558134Y-122174000D02*
X176022000Y-120637866D01*
X187452000Y-123698000D02*
X185511500Y-121757500D01*
X144307000Y-132553000D02*
X144307000Y-133893000D01*
X149363428Y-125730000D02*
X149230714Y-125597286D01*
X198628000Y-115316000D02*
X197612000Y-114300000D01*
D23*
%TO.N,+5V*%
X175514000Y-121158000D02*
X177038000Y-122682000D01*
X165862000Y-90678000D02*
X165862000Y-90932000D01*
X151638000Y-108966000D02*
X151892000Y-108966000D01*
X177038000Y-122936000D02*
X177546000Y-122936000D01*
X189992000Y-120904000D02*
X191008000Y-119888000D01*
X191008000Y-119888000D02*
X191770000Y-119888000D01*
X148336000Y-105664000D02*
X151638000Y-108966000D01*
D22*
X152146000Y-136652000D02*
X154178000Y-138684000D01*
D23*
X187452000Y-120904000D02*
X179324000Y-120904000D01*
X177546000Y-122936000D02*
X177800000Y-122936000D01*
X148336000Y-104648000D02*
X148336000Y-105664000D01*
D22*
X152146000Y-135128000D02*
X152146000Y-136652000D01*
D23*
X189484000Y-120904000D02*
X189992000Y-120904000D01*
D22*
X152146000Y-113284000D02*
X153416000Y-112014000D01*
X154178000Y-111252000D02*
X154178000Y-110998000D01*
X153924000Y-115062000D02*
X152146000Y-113284000D01*
D23*
X164846000Y-89662000D02*
X165862000Y-90678000D01*
D22*
X151384000Y-133858000D02*
X151638000Y-133858000D01*
X147320000Y-112268000D02*
X148336000Y-113284000D01*
X153924000Y-116586000D02*
X153924000Y-115062000D01*
D23*
X177038000Y-122682000D02*
X177038000Y-122936000D01*
D22*
X148336000Y-113284000D02*
X152146000Y-113284000D01*
X153416000Y-112014000D02*
X154178000Y-111252000D01*
D23*
X164846000Y-82550000D02*
X164846000Y-89662000D01*
X192024000Y-120142000D02*
X192024000Y-121158000D01*
D22*
X151638000Y-133604000D02*
X151638000Y-133858000D01*
D23*
X191770000Y-119888000D02*
X192024000Y-120142000D01*
D22*
X148590000Y-130556000D02*
X151638000Y-133604000D01*
D23*
X164846000Y-89662000D02*
X154432000Y-100076000D01*
D22*
X157734000Y-110744000D02*
X159004000Y-110744000D01*
X149606000Y-135636000D02*
X151384000Y-133858000D01*
D23*
X177800000Y-122936000D02*
X179070000Y-124206000D01*
D22*
X156464000Y-112014000D02*
X153416000Y-112014000D01*
D23*
X174498000Y-122936000D02*
X177038000Y-122936000D01*
D22*
X157734000Y-110744000D02*
X156464000Y-112014000D01*
D23*
X173482000Y-123952000D02*
X174498000Y-122936000D01*
%TO.N,Net-(C12-Pad1)*%
X154940000Y-90678000D02*
X157734000Y-90678000D01*
X152146000Y-87884000D02*
X154940000Y-90678000D01*
D24*
X136398000Y-86614000D02*
X142494000Y-86614000D01*
D22*
%TO.N,/ServoPWM1*%
X175514000Y-102870000D02*
X174498000Y-101854000D01*
X175768000Y-102870000D02*
X175514000Y-102870000D01*
X189992000Y-106426000D02*
X186436000Y-102870000D01*
X149606000Y-101854000D02*
X147574000Y-103886000D01*
X145542000Y-105918000D02*
X145542000Y-106426000D01*
X147574000Y-103886000D02*
X145542000Y-105918000D01*
X186436000Y-102870000D02*
X175768000Y-102870000D01*
X174498000Y-101854000D02*
X149606000Y-101854000D01*
%TO.N,/ServoPWM2*%
X150876000Y-104902000D02*
X156210000Y-104902000D01*
X150114000Y-105664000D02*
X150876000Y-104902000D01*
X163322000Y-108458000D02*
X161417000Y-106553000D01*
X180340000Y-108458000D02*
X163322000Y-108458000D01*
X161036000Y-104902000D02*
X161036000Y-106172000D01*
X161036000Y-106172000D02*
X161417000Y-106553000D01*
%TO.N,/ODriveUARTTX1*%
X158750000Y-104140000D02*
X158750000Y-107188000D01*
X150362286Y-116326286D02*
X149103714Y-116326286D01*
X149103714Y-116326286D02*
X147320000Y-118110000D01*
X158750000Y-107188000D02*
X156718000Y-109220000D01*
%TO.N,/ODriveUARTRX1*%
X148590000Y-119126000D02*
X148336000Y-119126000D01*
X157480000Y-107188000D02*
X155448000Y-109220000D01*
X151638000Y-116078000D02*
X148709221Y-119006779D01*
X148709221Y-119006779D02*
X148590000Y-119126000D01*
X157480000Y-104140000D02*
X157480000Y-107188000D01*
%TO.N,Net-(R2-Pad1)*%
X149606000Y-133096000D02*
X149854286Y-132847714D01*
X145034000Y-133096000D02*
X149606000Y-133096000D01*
%TO.N,/ContDataIn*%
X146812000Y-121920000D02*
X151130000Y-117602000D01*
X155718464Y-135398464D02*
X156210000Y-134906928D01*
X146812000Y-123952000D02*
X146812000Y-121920000D01*
X157988000Y-114554000D02*
X157988000Y-111835500D01*
X147320000Y-124460000D02*
X146812000Y-123952000D01*
X155194000Y-124460000D02*
X147320000Y-124460000D01*
X155956000Y-125222000D02*
X155194000Y-124460000D01*
X154940000Y-117602000D02*
X157988000Y-114554000D01*
X156210000Y-125476000D02*
X155956000Y-125222000D01*
X156210000Y-134906928D02*
X156210000Y-125476000D01*
X151130000Y-117602000D02*
X154940000Y-117602000D01*
%TO.N,Net-(U2-Pad20)*%
X155735021Y-119380000D02*
X151892000Y-119380000D01*
X160157797Y-123802776D02*
X155735021Y-119380000D01*
X150368000Y-112014000D02*
X150368000Y-109474000D01*
%TO.N,/ContDataOut*%
X157018424Y-129355636D02*
X159188364Y-129355636D01*
X165354000Y-108966000D02*
X165608000Y-109220000D01*
X160676017Y-107028555D02*
X162613462Y-108966000D01*
X157018424Y-129239576D02*
X157018424Y-129355636D01*
X164846000Y-110998000D02*
X164846000Y-111771428D01*
X164846000Y-111771428D02*
X164089714Y-112527714D01*
X162613462Y-108966000D02*
X165354000Y-108966000D01*
X164089714Y-124454286D02*
X164089714Y-112527714D01*
X159188364Y-129355636D02*
X164089714Y-124454286D01*
X165608000Y-110236000D02*
X164846000Y-110998000D01*
X165608000Y-109220000D02*
X165608000Y-110236000D01*
%TO.N,Net-(U2-Pad21)*%
X149352000Y-109982000D02*
X149098000Y-109728000D01*
X159451042Y-124509531D02*
X155329508Y-120387997D01*
X149352000Y-112522000D02*
X149352000Y-109982000D01*
X155329508Y-120387997D02*
X151892000Y-120387997D01*
%TO.N,Net-(U2-Pad22)*%
X151892000Y-121387500D02*
X150368000Y-121387500D01*
X148336000Y-110236000D02*
X147314286Y-109214286D01*
X154915500Y-121387500D02*
X151892000Y-121387500D01*
X158744286Y-125216286D02*
X154915500Y-121387500D01*
X148336000Y-112014000D02*
X148336000Y-110236000D01*
%TO.N,Net-(U2-Pad93)*%
X161290000Y-123698000D02*
X158242000Y-120650000D01*
%TO.N,/ServoCurrent1*%
X171704000Y-127508000D02*
X173990000Y-129794000D01*
X191262000Y-122948134D02*
X191262000Y-122936000D01*
X175514000Y-129794000D02*
X184416134Y-129794000D01*
X184416134Y-129794000D02*
X191262000Y-122948134D01*
X173990000Y-129794000D02*
X175514000Y-129794000D01*
%TO.N,/ServoCurrent2*%
X177546000Y-114808000D02*
X175260000Y-117094000D01*
X175260000Y-117094000D02*
X172466000Y-117094000D01*
X188468000Y-119888000D02*
X188468000Y-116332000D01*
X186182000Y-114046000D02*
X178308000Y-114046000D01*
X188468000Y-121666000D02*
X188468000Y-119888000D01*
X188468000Y-116332000D02*
X186182000Y-114046000D01*
X189992000Y-123190000D02*
X188468000Y-121666000D01*
X171894584Y-117665416D02*
X171894584Y-120181099D01*
X178308000Y-114046000D02*
X177546000Y-114808000D01*
X172466000Y-117094000D02*
X171894584Y-117665416D01*
%TO.N,Net-(C2-Pad2)*%
X164846000Y-124968000D02*
X164846000Y-116586000D01*
X151638000Y-109982000D02*
X164338000Y-109982000D01*
X151130000Y-110490000D02*
X151638000Y-109982000D01*
X160782000Y-129032000D02*
X164846000Y-124968000D01*
%TO.N,Net-(U2-Pad92)*%
X163068000Y-124448572D02*
X157739714Y-119120286D01*
%TO.N,Net-(U2-Pad91)*%
X162814000Y-122936000D02*
X157988000Y-118110000D01*
X157988000Y-118110000D02*
X157988000Y-117602000D01*
%TO.N,Net-(U2-Pad90)*%
X163322000Y-121920000D02*
X158750000Y-117348000D01*
X158750000Y-117348000D02*
X158750000Y-116332000D01*
%TO.N,Net-(U1-Pad19)*%
X145293498Y-130053498D02*
X145288000Y-130048000D01*
X145293498Y-130417160D02*
X145293498Y-130053498D01*
X143758286Y-132074286D02*
X145293498Y-130539074D01*
X140462000Y-133858000D02*
X142245714Y-132074286D01*
X142245714Y-132074286D02*
X143758286Y-132074286D01*
X145288000Y-130048000D02*
X144780000Y-129540000D01*
X145293498Y-130539074D02*
X145293498Y-130417160D01*
%TD*%
M02*
